<svg xmlns="http://www.w3.org/2000/svg" width="11" height="11" viewBox="0 0 11 11">
  <defs>
    <style>
      .cls-1 {
        fill: #b4bfc7;
        fill-rule: evenodd;
      }
    </style>
  </defs>
  <path id="Forma_1" data-name="Forma 1" class="cls-1" d="M1131.39,102.115h0.42l1,8.311a0.384,0.384,0,0,0,.39.341h6.6a0.391,0.391,0,0,0,.39-0.341l1-8.311h0.42a0.388,0.388,0,1,0,0-.776h-2.97v-1.185a0.384,0.384,0,0,0-.39-0.388h-3.5a0.384,0.384,0,0,0-.39.388v1.185h-2.97a0.384,0.384,0,0,0-.39.388A0.39,0.39,0,0,0,1131.39,102.115Zm3.75-1.572h2.72v0.8h-2.72v-0.8Zm5.26,1.572L1139.46,110h-5.92l-0.94-7.884h7.8Zm-5.19,6.7a0.385,0.385,0,0,0,.39-0.389v-4.652a0.39,0.39,0,0,0-.78,0v4.652A0.385,0.385,0,0,0,1135.21,108.815Zm2.58,0a0.385,0.385,0,0,0,.39-0.389v-4.652a0.39,0.39,0,0,0-.78,0v4.652A0.391,0.391,0,0,0,1137.79,108.815Z" transform="translate(-1131 -99.781)"/>
</svg>
